<svg xmlns="http://www.w3.org/2000/svg" xmlns:xlink="http://www.w3.org/1999/xlink" width="286" height="141" viewBox="0 0 286 141">
  <defs>
    <clipPath id="clip-Tasks">
      <rect width="286" height="141"/>
    </clipPath>
  </defs>
  <g id="Tasks" clip-path="url(#clip-Tasks)">
    <g id="clipboard" transform="translate(85 36)">
      <g id="Group_9" data-name="Group 9" transform="translate(0 0)">
        <g id="Group_8" data-name="Group 8" transform="translate(0 0)">
          <g id="Group_7" data-name="Group 7">
            <path id="Path_9" data-name="Path 9" d="M88.929,8.005H83.4V5.532c0-.8-.873-1.164-1.673-1.164H77.438A6.506,6.506,0,0,0,70.965,0a6.618,6.618,0,0,0-6.473,4.364H60.274c-.8,0-1.6.364-1.6,1.164V8.005H53.146A6.182,6.182,0,0,0,47.037,13.9V55.57c0,3.2,2.909,5.527,6.109,5.527H88.929c3.2,0,6.109-2.327,6.109-5.527V13.9A6.182,6.182,0,0,0,88.929,8.005ZM61.583,7.278h4a1.6,1.6,0,0,0,1.382-1.309,4.218,4.218,0,0,1,4-3.273,4.145,4.145,0,0,1,3.927,3.273,1.6,1.6,0,0,0,1.455,1.309h4.146V13.1H61.583ZM92.129,55.57c0,1.6-1.6,2.618-3.2,2.618H53.146c-1.6,0-3.2-1.018-3.2-2.618V13.9a3.273,3.273,0,0,1,3.2-2.982h5.527v3.709a1.527,1.527,0,0,0,1.6,1.382H81.729A1.6,1.6,0,0,0,83.4,14.623V10.914h5.527a3.273,3.273,0,0,1,3.2,2.982V55.57Z" transform="translate(-47.037 0)" fill="#2d5f2e"/>
            <path id="Path_10" data-name="Path 10" d="M110.495,230.765a1.455,1.455,0,0,0-2.036-.073l-4.655,4.436-1.964-2.036a1.455,1.455,0,0,0-2.036-.073,1.527,1.527,0,0,0,0,2.109l2.982,3.055a1.309,1.309,0,0,0,1.018.436,1.454,1.454,0,0,0,1.018-.436l5.673-5.382a1.382,1.382,0,0,0,.084-1.952C110.552,230.82,110.524,230.792,110.495,230.765Z" transform="translate(-92.094 -198.25)" fill="#2d5f2e"/>
            <path id="Path_11" data-name="Path 11" d="M216.73,256.034H200a1.455,1.455,0,1,0,0,2.909H216.73a1.455,1.455,0,1,0,0-2.909Z" transform="translate(-177.457 -220.392)" fill="#2d5f2e"/>
            <path id="Path_12" data-name="Path 12" d="M110.495,147.173a1.455,1.455,0,0,0-2.036-.073l-4.655,4.436L101.84,149.5a1.455,1.455,0,0,0-2.036-.073,1.527,1.527,0,0,0,0,2.109l2.982,3.055a1.309,1.309,0,0,0,1.018.436,1.454,1.454,0,0,0,1.018-.436l5.673-5.382a1.382,1.382,0,0,0,.084-1.952C110.552,147.228,110.524,147.2,110.495,147.173Z" transform="translate(-92.094 -126.295)" fill="#2d5f2e"/>
            <path id="Path_13" data-name="Path 13" d="M216.73,172.442H200a1.455,1.455,0,0,0,0,2.909H216.73a1.455,1.455,0,1,0,0-2.909Z" transform="translate(-177.457 -148.437)" fill="#2d5f2e"/>
            <path id="Path_14" data-name="Path 14" d="M110.495,314.356a1.455,1.455,0,0,0-2.036-.073L103.8,318.72l-1.964-2.036a1.455,1.455,0,0,0-2.036-.073,1.527,1.527,0,0,0,0,2.109l2.982,3.055a1.309,1.309,0,0,0,1.018.436,1.454,1.454,0,0,0,1.018-.436l5.673-5.382a1.382,1.382,0,0,0,.084-1.952C110.552,314.411,110.524,314.383,110.495,314.356Z" transform="translate(-92.094 -270.205)" fill="#2d5f2e"/>
            <path id="Path_15" data-name="Path 15" d="M216.73,339.626H200a1.455,1.455,0,1,0,0,2.909H216.73a1.455,1.455,0,1,0,0-2.909Z" transform="translate(-177.457 -292.348)" fill="#2d5f2e"/>
          </g>
        </g>
      </g>
    </g>
    <text id="GO-TASKS" transform="translate(143 75)" fill="#2d5f2e" font-size="14" font-family="Poppins-SemiBold, Poppins" font-weight="600"><tspan x="0" y="0">GO-TASKS</tspan></text>
  </g>
</svg>
